<mxfile host="app.diagrams.net" agent="Mozilla/5.0 (Windows NT 10.0; Win64; x64) AppleWebKit/537.36 (KHTML, like Gecko) Chrome/140.0.0.0 Safari/537.36 Edg/140.0.0.0" version="28.2.4">
  <diagram name="Page-1" id="KEOz7PVb_XIx9Ft7Hm1n">
    <mxGraphModel dx="1520" dy="2052" grid="1" gridSize="10" guides="1" tooltips="1" connect="1" arrows="1" fold="1" page="1" pageScale="1" pageWidth="827" pageHeight="1169" math="0" shadow="0">
      <root>
        <mxCell id="0" />
        <mxCell id="1" parent="0" />
        <mxCell id="9L5kOe5RrQIcinIT0UnI-1" value="Recording Label" style="rounded=0;whiteSpace=wrap;html=1;" vertex="1" parent="1">
          <mxGeometry x="910" y="150" width="120" height="60" as="geometry" />
        </mxCell>
        <mxCell id="9L5kOe5RrQIcinIT0UnI-5" value="" style="endArrow=none;html=1;rounded=0;entryX=0.5;entryY=1;entryDx=0;entryDy=0;exitX=0.5;exitY=0;exitDx=0;exitDy=0;" edge="1" parent="1" source="9L5kOe5RrQIcinIT0UnI-1" target="9L5kOe5RrQIcinIT0UnI-6">
          <mxGeometry width="50" height="50" relative="1" as="geometry">
            <mxPoint x="780" y="310" as="sourcePoint" />
            <mxPoint x="970" y="70" as="targetPoint" />
          </mxGeometry>
        </mxCell>
        <mxCell id="9L5kOe5RrQIcinIT0UnI-6" value="ID" style="ellipse;whiteSpace=wrap;html=1;" vertex="1" parent="1">
          <mxGeometry x="910" y="-10" width="120" height="80" as="geometry" />
        </mxCell>
        <mxCell id="9L5kOe5RrQIcinIT0UnI-7" value="Name" style="ellipse;whiteSpace=wrap;html=1;" vertex="1" parent="1">
          <mxGeometry x="1050" y="10" width="120" height="80" as="geometry" />
        </mxCell>
        <mxCell id="9L5kOe5RrQIcinIT0UnI-8" value="Locations" style="ellipse;whiteSpace=wrap;html=1;" vertex="1" parent="1">
          <mxGeometry x="770" y="10" width="120" height="80" as="geometry" />
        </mxCell>
        <mxCell id="9L5kOe5RrQIcinIT0UnI-9" value="" style="endArrow=none;html=1;rounded=0;entryX=0.5;entryY=1;entryDx=0;entryDy=0;exitX=0.5;exitY=0;exitDx=0;exitDy=0;" edge="1" parent="1" target="9L5kOe5RrQIcinIT0UnI-8">
          <mxGeometry width="50" height="50" relative="1" as="geometry">
            <mxPoint x="969.5" y="150" as="sourcePoint" />
            <mxPoint x="969.5" y="70" as="targetPoint" />
          </mxGeometry>
        </mxCell>
        <mxCell id="9L5kOe5RrQIcinIT0UnI-10" value="" style="endArrow=none;html=1;rounded=0;entryX=0.5;entryY=1;entryDx=0;entryDy=0;exitX=0.5;exitY=1;exitDx=0;exitDy=0;" edge="1" parent="1" source="9L5kOe5RrQIcinIT0UnI-7">
          <mxGeometry width="50" height="50" relative="1" as="geometry">
            <mxPoint x="1109.5" y="210" as="sourcePoint" />
            <mxPoint x="970" y="150" as="targetPoint" />
          </mxGeometry>
        </mxCell>
        <mxCell id="9L5kOe5RrQIcinIT0UnI-15" value="" style="edgeStyle=orthogonalEdgeStyle;rounded=0;orthogonalLoop=1;jettySize=auto;html=1;" edge="1" parent="1" source="9L5kOe5RrQIcinIT0UnI-11" target="9L5kOe5RrQIcinIT0UnI-14">
          <mxGeometry relative="1" as="geometry" />
        </mxCell>
        <mxCell id="9L5kOe5RrQIcinIT0UnI-11" value="Produced" style="rhombus;whiteSpace=wrap;html=1;rounded=0;" vertex="1" parent="1">
          <mxGeometry x="780" y="140" width="80" height="80" as="geometry" />
        </mxCell>
        <mxCell id="9L5kOe5RrQIcinIT0UnI-14" value="CD" style="whiteSpace=wrap;html=1;rounded=0;" vertex="1" parent="1">
          <mxGeometry x="600" y="150" width="120" height="60" as="geometry" />
        </mxCell>
        <mxCell id="9L5kOe5RrQIcinIT0UnI-16" value="Title" style="ellipse;whiteSpace=wrap;html=1;" vertex="1" parent="1">
          <mxGeometry x="600" y="20" width="120" height="80" as="geometry" />
        </mxCell>
        <mxCell id="9L5kOe5RrQIcinIT0UnI-17" value="" style="endArrow=none;html=1;rounded=0;exitX=0.5;exitY=0;exitDx=0;exitDy=0;entryX=0.5;entryY=1;entryDx=0;entryDy=0;" edge="1" parent="1" source="9L5kOe5RrQIcinIT0UnI-14" target="9L5kOe5RrQIcinIT0UnI-16">
          <mxGeometry width="50" height="50" relative="1" as="geometry">
            <mxPoint x="750" y="150" as="sourcePoint" />
            <mxPoint x="800" y="100" as="targetPoint" />
          </mxGeometry>
        </mxCell>
        <mxCell id="9L5kOe5RrQIcinIT0UnI-18" value="Unique code" style="ellipse;whiteSpace=wrap;html=1;" vertex="1" parent="1">
          <mxGeometry x="490" y="60" width="120" height="80" as="geometry" />
        </mxCell>
        <mxCell id="9L5kOe5RrQIcinIT0UnI-19" value="" style="endArrow=none;html=1;rounded=0;exitX=0;exitY=0;exitDx=0;exitDy=0;entryX=0.573;entryY=1;entryDx=0;entryDy=0;entryPerimeter=0;" edge="1" parent="1" source="9L5kOe5RrQIcinIT0UnI-14" target="9L5kOe5RrQIcinIT0UnI-18">
          <mxGeometry width="50" height="50" relative="1" as="geometry">
            <mxPoint x="670" y="160" as="sourcePoint" />
            <mxPoint x="670" y="110" as="targetPoint" />
          </mxGeometry>
        </mxCell>
        <mxCell id="9L5kOe5RrQIcinIT0UnI-20" value="Release year and sold" style="ellipse;whiteSpace=wrap;html=1;" vertex="1" parent="1">
          <mxGeometry x="420" y="140" width="120" height="80" as="geometry" />
        </mxCell>
        <mxCell id="9L5kOe5RrQIcinIT0UnI-23" value="" style="endArrow=none;html=1;rounded=0;entryX=0;entryY=0.5;entryDx=0;entryDy=0;" edge="1" parent="1" target="9L5kOe5RrQIcinIT0UnI-14">
          <mxGeometry width="50" height="50" relative="1" as="geometry">
            <mxPoint x="540" y="180" as="sourcePoint" />
            <mxPoint x="590" y="130" as="targetPoint" />
          </mxGeometry>
        </mxCell>
        <mxCell id="9L5kOe5RrQIcinIT0UnI-24" value="Release year&lt;div&gt;&lt;br&gt;&lt;/div&gt;" style="ellipse;whiteSpace=wrap;html=1;" vertex="1" parent="1">
          <mxGeometry x="280" y="100" width="120" height="80" as="geometry" />
        </mxCell>
        <mxCell id="9L5kOe5RrQIcinIT0UnI-25" value="Sold&#39;s" style="ellipse;whiteSpace=wrap;html=1;" vertex="1" parent="1">
          <mxGeometry x="290" y="200" width="120" height="80" as="geometry" />
        </mxCell>
        <mxCell id="9L5kOe5RrQIcinIT0UnI-31" value="" style="edgeStyle=orthogonalEdgeStyle;rounded=0;orthogonalLoop=1;jettySize=auto;html=1;" edge="1" parent="1" source="9L5kOe5RrQIcinIT0UnI-26" target="9L5kOe5RrQIcinIT0UnI-30">
          <mxGeometry relative="1" as="geometry" />
        </mxCell>
        <mxCell id="9L5kOe5RrQIcinIT0UnI-39" value="" style="edgeStyle=orthogonalEdgeStyle;rounded=0;orthogonalLoop=1;jettySize=auto;html=1;" edge="1" parent="1" source="9L5kOe5RrQIcinIT0UnI-26" target="9L5kOe5RrQIcinIT0UnI-14">
          <mxGeometry relative="1" as="geometry" />
        </mxCell>
        <mxCell id="9L5kOe5RrQIcinIT0UnI-26" value="Recorded" style="rhombus;whiteSpace=wrap;html=1;rounded=0;" vertex="1" parent="1">
          <mxGeometry x="620" y="250" width="80" height="80" as="geometry" />
        </mxCell>
        <mxCell id="9L5kOe5RrQIcinIT0UnI-28" value="" style="endArrow=none;html=1;rounded=0;entryX=0;entryY=0.5;entryDx=0;entryDy=0;" edge="1" parent="1">
          <mxGeometry width="50" height="50" relative="1" as="geometry">
            <mxPoint x="860" y="180" as="sourcePoint" />
            <mxPoint x="920" y="180" as="targetPoint" />
          </mxGeometry>
        </mxCell>
        <mxCell id="9L5kOe5RrQIcinIT0UnI-30" value="Songs" style="whiteSpace=wrap;html=1;rounded=0;" vertex="1" parent="1">
          <mxGeometry x="600" y="370" width="120" height="60" as="geometry" />
        </mxCell>
        <mxCell id="9L5kOe5RrQIcinIT0UnI-32" value="" style="endArrow=none;html=1;rounded=0;entryX=0;entryY=0.5;entryDx=0;entryDy=0;exitX=1.023;exitY=0.64;exitDx=0;exitDy=0;exitPerimeter=0;" edge="1" parent="1" source="9L5kOe5RrQIcinIT0UnI-24">
          <mxGeometry width="50" height="50" relative="1" as="geometry">
            <mxPoint x="370" y="160" as="sourcePoint" />
            <mxPoint x="420" y="160" as="targetPoint" />
          </mxGeometry>
        </mxCell>
        <mxCell id="9L5kOe5RrQIcinIT0UnI-33" value="" style="endArrow=none;html=1;rounded=0;exitX=0.933;exitY=0.3;exitDx=0;exitDy=0;exitPerimeter=0;entryX=0;entryY=1;entryDx=0;entryDy=0;" edge="1" parent="1" source="9L5kOe5RrQIcinIT0UnI-25" target="9L5kOe5RrQIcinIT0UnI-20">
          <mxGeometry width="50" height="50" relative="1" as="geometry">
            <mxPoint x="413" y="161" as="sourcePoint" />
            <mxPoint x="430" y="170" as="targetPoint" />
          </mxGeometry>
        </mxCell>
        <mxCell id="9L5kOe5RrQIcinIT0UnI-34" value="Title" style="ellipse;whiteSpace=wrap;html=1;" vertex="1" parent="1">
          <mxGeometry x="430" y="250" width="120" height="80" as="geometry" />
        </mxCell>
        <mxCell id="9L5kOe5RrQIcinIT0UnI-35" value="Unique code" style="ellipse;whiteSpace=wrap;html=1;" vertex="1" parent="1">
          <mxGeometry x="410" y="340" width="120" height="80" as="geometry" />
        </mxCell>
        <mxCell id="9L5kOe5RrQIcinIT0UnI-36" value="" style="endArrow=none;html=1;rounded=0;entryX=0;entryY=0;entryDx=0;entryDy=0;exitX=1;exitY=0.605;exitDx=0;exitDy=0;exitPerimeter=0;" edge="1" parent="1" source="9L5kOe5RrQIcinIT0UnI-34" target="9L5kOe5RrQIcinIT0UnI-30">
          <mxGeometry width="50" height="50" relative="1" as="geometry">
            <mxPoint x="550" y="330" as="sourcePoint" />
            <mxPoint x="600" y="280" as="targetPoint" />
          </mxGeometry>
        </mxCell>
        <mxCell id="9L5kOe5RrQIcinIT0UnI-38" value="" style="endArrow=none;html=1;rounded=0;entryX=0;entryY=0.75;entryDx=0;entryDy=0;exitX=1;exitY=0.5;exitDx=0;exitDy=0;" edge="1" parent="1" source="9L5kOe5RrQIcinIT0UnI-35" target="9L5kOe5RrQIcinIT0UnI-30">
          <mxGeometry width="50" height="50" relative="1" as="geometry">
            <mxPoint x="560" y="340" as="sourcePoint" />
            <mxPoint x="610" y="380" as="targetPoint" />
          </mxGeometry>
        </mxCell>
        <mxCell id="9L5kOe5RrQIcinIT0UnI-40" value="Foreign key linked to Unique code of CD" style="ellipse;whiteSpace=wrap;html=1;" vertex="1" parent="1">
          <mxGeometry x="410" y="440" width="120" height="80" as="geometry" />
        </mxCell>
        <mxCell id="9L5kOe5RrQIcinIT0UnI-41" value="&lt;span style=&quot;color: rgb(39, 53, 64); font-family: &amp;quot;Lato Extended&amp;quot;, Lato, &amp;quot;Helvetica Neue&amp;quot;, Helvetica, Arial, sans-serif; font-size: 16px; text-align: start; background-color: rgb(255, 255, 255);&quot;&gt;end-of-the-year rating&lt;/span&gt;" style="ellipse;whiteSpace=wrap;html=1;" vertex="1" parent="1">
          <mxGeometry x="500" y="520" width="120" height="80" as="geometry" />
        </mxCell>
        <mxCell id="9L5kOe5RrQIcinIT0UnI-42" value="" style="endArrow=none;html=1;rounded=0;entryX=0;entryY=1;entryDx=0;entryDy=0;exitX=1.001;exitY=0.332;exitDx=0;exitDy=0;exitPerimeter=0;" edge="1" parent="1" source="9L5kOe5RrQIcinIT0UnI-40" target="9L5kOe5RrQIcinIT0UnI-30">
          <mxGeometry width="50" height="50" relative="1" as="geometry">
            <mxPoint x="540" y="390" as="sourcePoint" />
            <mxPoint x="610" y="425" as="targetPoint" />
          </mxGeometry>
        </mxCell>
        <mxCell id="9L5kOe5RrQIcinIT0UnI-43" value="" style="endArrow=none;html=1;rounded=0;entryX=0.159;entryY=0.966;entryDx=0;entryDy=0;exitX=0.538;exitY=-0.004;exitDx=0;exitDy=0;exitPerimeter=0;entryPerimeter=0;" edge="1" parent="1" source="9L5kOe5RrQIcinIT0UnI-41" target="9L5kOe5RrQIcinIT0UnI-30">
          <mxGeometry width="50" height="50" relative="1" as="geometry">
            <mxPoint x="540" y="477" as="sourcePoint" />
            <mxPoint x="610" y="440" as="targetPoint" />
          </mxGeometry>
        </mxCell>
        <mxCell id="9L5kOe5RrQIcinIT0UnI-44" value="CD title" style="ellipse;whiteSpace=wrap;html=1;" vertex="1" parent="1">
          <mxGeometry x="300" y="550" width="120" height="80" as="geometry" />
        </mxCell>
        <mxCell id="9L5kOe5RrQIcinIT0UnI-45" value="Song Title" style="ellipse;whiteSpace=wrap;html=1;" vertex="1" parent="1">
          <mxGeometry x="410" y="630" width="120" height="80" as="geometry" />
        </mxCell>
        <mxCell id="9L5kOe5RrQIcinIT0UnI-46" value="" style="endArrow=none;html=1;rounded=0;entryX=0;entryY=1;entryDx=0;entryDy=0;exitX=0.996;exitY=0.377;exitDx=0;exitDy=0;exitPerimeter=0;" edge="1" parent="1" source="9L5kOe5RrQIcinIT0UnI-44">
          <mxGeometry width="50" height="50" relative="1" as="geometry">
            <mxPoint x="435" y="587" as="sourcePoint" />
            <mxPoint x="505" y="550" as="targetPoint" />
          </mxGeometry>
        </mxCell>
        <mxCell id="9L5kOe5RrQIcinIT0UnI-47" value="" style="endArrow=none;html=1;rounded=0;entryX=0;entryY=1;entryDx=0;entryDy=0;exitX=0.601;exitY=0.021;exitDx=0;exitDy=0;exitPerimeter=0;" edge="1" parent="1" source="9L5kOe5RrQIcinIT0UnI-45" target="9L5kOe5RrQIcinIT0UnI-41">
          <mxGeometry width="50" height="50" relative="1" as="geometry">
            <mxPoint x="430" y="590" as="sourcePoint" />
            <mxPoint x="515" y="560" as="targetPoint" />
          </mxGeometry>
        </mxCell>
        <mxCell id="9L5kOe5RrQIcinIT0UnI-51" value="" style="edgeStyle=orthogonalEdgeStyle;rounded=0;orthogonalLoop=1;jettySize=auto;html=1;entryX=1;entryY=0.5;entryDx=0;entryDy=0;" edge="1" parent="1" source="9L5kOe5RrQIcinIT0UnI-48" target="9L5kOe5RrQIcinIT0UnI-30">
          <mxGeometry relative="1" as="geometry" />
        </mxCell>
        <mxCell id="9L5kOe5RrQIcinIT0UnI-54" value="" style="edgeStyle=orthogonalEdgeStyle;rounded=0;orthogonalLoop=1;jettySize=auto;html=1;entryX=0;entryY=0.5;entryDx=0;entryDy=0;" edge="1" parent="1" source="9L5kOe5RrQIcinIT0UnI-48" target="9L5kOe5RrQIcinIT0UnI-55">
          <mxGeometry relative="1" as="geometry">
            <mxPoint x="1240" y="400" as="targetPoint" />
          </mxGeometry>
        </mxCell>
        <mxCell id="9L5kOe5RrQIcinIT0UnI-48" value="Musical Group" style="whiteSpace=wrap;html=1;rounded=0;" vertex="1" parent="1">
          <mxGeometry x="930" y="370" width="120" height="60" as="geometry" />
        </mxCell>
        <mxCell id="9L5kOe5RrQIcinIT0UnI-50" value="Recorded by" style="rhombus;whiteSpace=wrap;html=1;rounded=0;" vertex="1" parent="1">
          <mxGeometry x="780" y="360" width="80" height="80" as="geometry" />
        </mxCell>
        <mxCell id="9L5kOe5RrQIcinIT0UnI-52" value="Integrate by" style="rhombus;whiteSpace=wrap;html=1;rounded=0;" vertex="1" parent="1">
          <mxGeometry x="1110" y="360" width="80" height="80" as="geometry" />
        </mxCell>
        <mxCell id="9L5kOe5RrQIcinIT0UnI-55" value="Artists" style="whiteSpace=wrap;html=1;rounded=0;" vertex="1" parent="1">
          <mxGeometry x="1250" y="370" width="120" height="60" as="geometry" />
        </mxCell>
        <mxCell id="9L5kOe5RrQIcinIT0UnI-58" value="" style="edgeStyle=orthogonalEdgeStyle;rounded=0;orthogonalLoop=1;jettySize=auto;html=1;entryX=1;entryY=0.75;entryDx=0;entryDy=0;exitX=0;exitY=0;exitDx=0;exitDy=0;" edge="1" parent="1" target="9L5kOe5RrQIcinIT0UnI-14">
          <mxGeometry relative="1" as="geometry">
            <mxPoint x="930" y="370" as="sourcePoint" />
            <mxPoint x="720" y="210" as="targetPoint" />
            <Array as="points">
              <mxPoint x="930" y="290" />
              <mxPoint x="760" y="290" />
              <mxPoint x="760" y="210" />
              <mxPoint x="720" y="210" />
            </Array>
          </mxGeometry>
        </mxCell>
        <mxCell id="9L5kOe5RrQIcinIT0UnI-59" value="Creators" style="rhombus;whiteSpace=wrap;html=1;rounded=0;" vertex="1" parent="1">
          <mxGeometry x="790" y="260" width="80" height="80" as="geometry" />
        </mxCell>
        <mxCell id="9L5kOe5RrQIcinIT0UnI-61" value="Names" style="ellipse;whiteSpace=wrap;html=1;" vertex="1" parent="1">
          <mxGeometry x="1250" y="140" width="120" height="80" as="geometry" />
        </mxCell>
        <mxCell id="9L5kOe5RrQIcinIT0UnI-63" value="" style="endArrow=none;html=1;rounded=0;exitX=0.5;exitY=0;exitDx=0;exitDy=0;entryX=0.5;entryY=1;entryDx=0;entryDy=0;" edge="1" parent="1" target="9L5kOe5RrQIcinIT0UnI-61">
          <mxGeometry width="50" height="50" relative="1" as="geometry">
            <mxPoint x="1309.47" y="370" as="sourcePoint" />
            <mxPoint x="1309" y="320" as="targetPoint" />
          </mxGeometry>
        </mxCell>
        <mxCell id="9L5kOe5RrQIcinIT0UnI-64" value="First Name" style="ellipse;whiteSpace=wrap;html=1;" vertex="1" parent="1">
          <mxGeometry x="1190" y="40" width="120" height="80" as="geometry" />
        </mxCell>
        <mxCell id="9L5kOe5RrQIcinIT0UnI-65" value="Last Name" style="ellipse;whiteSpace=wrap;html=1;" vertex="1" parent="1">
          <mxGeometry x="1320" y="40" width="120" height="80" as="geometry" />
        </mxCell>
        <mxCell id="9L5kOe5RrQIcinIT0UnI-66" value="" style="endArrow=none;html=1;rounded=0;entryX=0.5;entryY=1;entryDx=0;entryDy=0;exitX=0.5;exitY=1;exitDx=0;exitDy=0;" edge="1" parent="1" source="9L5kOe5RrQIcinIT0UnI-65">
          <mxGeometry width="50" height="50" relative="1" as="geometry">
            <mxPoint x="1470" y="80" as="sourcePoint" />
            <mxPoint x="1330" y="140" as="targetPoint" />
          </mxGeometry>
        </mxCell>
        <mxCell id="9L5kOe5RrQIcinIT0UnI-67" value="" style="endArrow=none;html=1;rounded=0;entryX=0.575;entryY=1.019;entryDx=0;entryDy=0;exitX=0;exitY=0;exitDx=0;exitDy=0;entryPerimeter=0;" edge="1" parent="1" source="9L5kOe5RrQIcinIT0UnI-61" target="9L5kOe5RrQIcinIT0UnI-64">
          <mxGeometry width="50" height="50" relative="1" as="geometry">
            <mxPoint x="1120" y="100" as="sourcePoint" />
            <mxPoint x="980" y="160" as="targetPoint" />
          </mxGeometry>
        </mxCell>
        <mxCell id="9L5kOe5RrQIcinIT0UnI-68" value="Unique ID" style="ellipse;whiteSpace=wrap;html=1;" vertex="1" parent="1">
          <mxGeometry x="1130" y="230" width="120" height="80" as="geometry" />
        </mxCell>
        <mxCell id="9L5kOe5RrQIcinIT0UnI-69" value="" style="endArrow=none;html=1;rounded=0;exitX=0.25;exitY=0;exitDx=0;exitDy=0;entryX=0.5;entryY=1;entryDx=0;entryDy=0;" edge="1" parent="1" source="9L5kOe5RrQIcinIT0UnI-55">
          <mxGeometry width="50" height="50" relative="1" as="geometry">
            <mxPoint x="1220" y="455" as="sourcePoint" />
            <mxPoint x="1220.53" y="305" as="targetPoint" />
          </mxGeometry>
        </mxCell>
        <mxCell id="9L5kOe5RrQIcinIT0UnI-70" value="Join date" style="ellipse;whiteSpace=wrap;html=1;" vertex="1" parent="1">
          <mxGeometry x="1390" y="250" width="120" height="80" as="geometry" />
        </mxCell>
        <mxCell id="9L5kOe5RrQIcinIT0UnI-71" value="" style="endArrow=none;html=1;rounded=0;exitX=0.5;exitY=0;exitDx=0;exitDy=0;entryX=0.004;entryY=0.573;entryDx=0;entryDy=0;entryPerimeter=0;" edge="1" parent="1" target="9L5kOe5RrQIcinIT0UnI-70">
          <mxGeometry width="50" height="50" relative="1" as="geometry">
            <mxPoint x="1360" y="370" as="sourcePoint" />
            <mxPoint x="1360.53" y="220" as="targetPoint" />
          </mxGeometry>
        </mxCell>
        <mxCell id="9L5kOe5RrQIcinIT0UnI-72" value="Join left" style="ellipse;whiteSpace=wrap;html=1;" vertex="1" parent="1">
          <mxGeometry x="1400" y="340" width="120" height="80" as="geometry" />
        </mxCell>
        <mxCell id="9L5kOe5RrQIcinIT0UnI-73" value="" style="endArrow=none;html=1;rounded=0;exitX=0.5;exitY=0;exitDx=0;exitDy=0;entryX=0;entryY=0.5;entryDx=0;entryDy=0;" edge="1" parent="1" target="9L5kOe5RrQIcinIT0UnI-72">
          <mxGeometry width="50" height="50" relative="1" as="geometry">
            <mxPoint x="1370" y="380" as="sourcePoint" />
            <mxPoint x="1400" y="306" as="targetPoint" />
          </mxGeometry>
        </mxCell>
        <mxCell id="9L5kOe5RrQIcinIT0UnI-74" value="Bitrhday" style="ellipse;whiteSpace=wrap;html=1;" vertex="1" parent="1">
          <mxGeometry x="1400" y="140" width="120" height="80" as="geometry" />
        </mxCell>
        <mxCell id="9L5kOe5RrQIcinIT0UnI-75" value="" style="endArrow=none;html=1;rounded=0;exitX=0.5;exitY=0;exitDx=0;exitDy=0;entryX=0.027;entryY=0.63;entryDx=0;entryDy=0;entryPerimeter=0;" edge="1" parent="1" target="9L5kOe5RrQIcinIT0UnI-74">
          <mxGeometry width="50" height="50" relative="1" as="geometry">
            <mxPoint x="1340" y="375" as="sourcePoint" />
            <mxPoint x="1340.53" y="225" as="targetPoint" />
          </mxGeometry>
        </mxCell>
        <mxCell id="9L5kOe5RrQIcinIT0UnI-77" value="" style="edgeStyle=orthogonalEdgeStyle;rounded=0;orthogonalLoop=1;jettySize=auto;html=1;entryX=0.5;entryY=1;entryDx=0;entryDy=0;exitX=0.5;exitY=1;exitDx=0;exitDy=0;" edge="1" parent="1" source="9L5kOe5RrQIcinIT0UnI-55" target="9L5kOe5RrQIcinIT0UnI-30">
          <mxGeometry relative="1" as="geometry">
            <mxPoint x="1270" y="600" as="sourcePoint" />
            <mxPoint x="1060" y="425" as="targetPoint" />
            <Array as="points">
              <mxPoint x="1270" y="430" />
              <mxPoint x="1270" y="520" />
              <mxPoint x="660" y="520" />
            </Array>
          </mxGeometry>
        </mxCell>
        <mxCell id="9L5kOe5RrQIcinIT0UnI-78" value="Colaboration" style="rhombus;whiteSpace=wrap;html=1;rounded=0;" vertex="1" parent="1">
          <mxGeometry x="940" y="480" width="80" height="80" as="geometry" />
        </mxCell>
      </root>
    </mxGraphModel>
  </diagram>
</mxfile>
